<svg width="541" height="149" viewBox="0 0 541 149" fill="none" xmlns="http://www.w3.org/2000/svg">
<path d="M513.701 33.0022C514.481 31.4882 515.674 30.7312 517.279 30.7312H538.269C538.911 30.7312 539.416 30.8688 539.783 31.1441C540.15 31.4194 540.333 31.7864 540.333 32.2452C540.333 32.704 540.15 33.2545 539.783 33.8968L495.189 111.798C494.363 113.266 493.148 114 491.542 114H473.925C472.365 114 471.47 113.266 471.241 111.798L466.286 81.7248L449.494 111.798C448.669 113.266 447.476 114 445.916 114H428.023C426.464 114 425.569 113.266 425.34 111.798L413.916 33.8968C413.778 32.9792 413.962 32.2222 414.466 31.6258C415.017 31.0294 415.797 30.7312 416.806 30.7312H434.836C436.442 30.7312 437.314 31.4882 437.451 33.0022L442.888 85.7161L466.974 33.071C467.708 31.5111 468.901 30.7312 470.553 30.7312H491.267C491.909 30.7312 492.391 30.8688 492.712 31.1441C493.079 31.4194 493.262 31.7864 493.262 32.2452C493.262 32.7498 493.102 33.3004 492.78 33.8968L482.527 52.271L487.137 85.7161L513.701 33.0022Z" fill="black"/>
<path d="M353.95 116.065C345.692 116.065 338.443 114.367 332.203 110.972C325.964 107.577 321.17 102.989 317.821 97.2086C314.471 91.3821 312.797 84.9591 312.797 77.9398C312.797 70.324 314.861 62.7082 318.99 55.0925C323.165 47.4767 329.015 41.2143 336.539 36.3054C344.109 31.3505 352.711 28.8731 362.345 28.8731C370.603 28.8731 377.852 30.5935 384.092 34.0344C390.331 37.4294 395.102 42.0631 398.406 47.9355C401.755 53.762 403.429 60.2308 403.429 67.3419C403.429 74.8201 401.319 82.3441 397.098 89.914C392.877 97.4839 386.982 103.746 379.412 108.701C371.888 113.61 363.4 116.065 353.95 116.065ZM355.601 93.3548C360.189 93.3548 364.295 92.162 367.919 89.7763C371.59 87.3907 374.434 84.3627 376.453 80.6925C378.471 76.9763 379.481 73.2143 379.481 69.4064C379.481 66.1491 378.609 63.167 376.866 60.4602C375.122 57.7534 372.783 55.6201 369.846 54.0602C366.956 52.4545 363.859 51.6516 360.556 51.6516C355.968 51.6516 351.862 52.8444 348.238 55.2301C344.659 57.5699 341.861 60.6208 339.842 64.3828C337.869 68.0989 336.883 71.9297 336.883 75.8753C336.883 78.995 337.732 81.9082 339.429 84.615C341.173 87.276 343.489 89.4093 346.38 91.015C349.27 92.5749 352.344 93.3548 355.601 93.3548Z" fill="black"/>
<path d="M291.63 111.247C291.217 113.082 290.093 114 288.258 114H270.572C269.058 114 268.301 113.381 268.301 112.142C268.301 112.004 268.347 111.706 268.439 111.247L290.116 9.19141C290.529 7.35629 291.653 6.43872 293.488 6.43872H311.174C312.688 6.43872 313.445 7.05807 313.445 8.29678C313.445 8.43442 313.399 8.73263 313.308 9.19141L291.63 111.247Z" fill="black"/>
<path d="M238.437 145.5C238.024 147.335 236.9 148.253 235.065 148.253C233.23 148.253 229.612 148.253 226.118 148.253C222.625 148.253 218.686 148.253 217.172 148.253C215.658 148.253 214.901 147.083 214.901 146.395C214.901 145.706 214.947 145.959 215.039 145.5C215.131 145.041 233.826 52.4086 233.826 52.4086H227.082C225.568 52.4086 224.811 51.7434 224.811 50.4129C224.811 50.0918 224.834 49.8394 224.88 49.6559L228.32 33.4839C228.733 31.6488 229.857 30.7312 231.693 30.7312H238.437L239.606 25.2258C240.845 19.3993 242.933 14.7197 245.869 11.1871C248.851 7.60861 252.819 5.0165 257.774 3.41077C262.729 1.75916 268.877 0.93335 276.217 0.93335H279.314C280.828 0.93335 281.585 1.5527 281.585 2.79141C281.585 2.92905 281.539 3.22725 281.447 3.68604L278.557 17.3118C278.236 19.1011 277.272 19.9957 275.667 19.9957H273.396C270.001 19.9957 267.432 20.6609 265.688 21.9914C263.991 23.3219 262.844 25.3864 262.247 28.185L261.766 30.7312H273.189C274.703 30.7312 275.46 31.3505 275.46 32.5893C275.46 32.7269 275.414 33.0251 275.323 33.4839L271.882 49.6559C271.698 50.5276 271.331 51.2158 270.781 51.7204C270.23 52.1792 269.496 52.4086 268.579 52.4086H257.224C257.224 52.4086 238.85 143.665 238.437 145.5Z" fill="black"/>
<path d="M210.253 111.936C209.944 113.312 209.101 114 207.724 114H158.382C157.247 114 156.679 113.535 156.679 112.606C156.679 112.503 156.713 112.28 156.782 111.936L171.337 43.5484C171.475 42.8946 171.75 42.3957 172.163 42.0516C172.576 41.6731 173.126 41.4839 173.814 41.4839H222.382C223.518 41.4839 224.085 41.9828 224.085 42.9807C224.085 43.2215 224.068 43.4108 224.034 43.5484L221.298 56.1936C221.161 56.8473 220.885 57.3634 220.473 57.7419C220.06 58.086 219.509 58.2581 218.821 58.2581H186.769L184.344 69.5613H208.963C210.098 69.5613 210.666 70.0602 210.666 71.0581C210.666 71.2989 210.649 71.4882 210.615 71.6258L208.137 83.2387C207.999 83.8925 207.724 84.4086 207.311 84.7871C206.898 85.1312 206.348 85.3032 205.66 85.3032H181.04L178.46 97.2258H211.285C212.455 97.2258 213.04 97.7075 213.04 98.671C213.04 98.8086 213.006 99.0151 212.937 99.2903L210.253 111.936Z" fill="black"/>
<path d="M97.128 111.936C96.8183 113.312 95.9753 114 94.599 114H80.6635C79.528 114 78.9603 113.535 78.9603 112.606C78.9603 112.503 78.9947 112.28 79.0635 111.936L93.6183 43.5484C93.928 42.1721 94.7538 41.4839 96.0958 41.4839H109.98C110.53 41.4839 110.977 41.5871 111.322 41.7936C111.666 42 111.958 42.3441 112.199 42.8258L130.522 82.4645L138.831 43.5484C139.141 42.1721 139.967 41.4839 141.309 41.4839H155.244C156.414 41.4839 156.999 41.9656 156.999 42.929C156.999 43.0667 156.965 43.2731 156.896 43.5484L142.341 111.936C142.031 113.312 141.188 114 139.812 114H127.683C126.651 114 125.928 113.553 125.515 112.658L105.902 70.7484L97.128 111.936Z" fill="black"/>
<path d="M32.6968 115.394C26.0903 115.394 20.3441 114.12 15.4581 111.574C10.6064 108.994 6.87311 105.312 4.25806 100.529C1.64301 95.7118 0.33548 90.0344 0.33548 83.4968C0.33548 76.2366 2.21075 69.2688 5.96129 62.5936C9.71182 55.8839 14.8731 50.4645 21.4452 46.3355C28.0516 42.1721 35.3634 40.0903 43.3806 40.0903C49.9871 40.0903 55.7333 41.3979 60.6194 44.0129C65.5054 46.5936 69.2559 50.3097 71.871 55.1613C74.486 60.0129 75.7935 65.742 75.7935 72.3484C75.7935 79.5742 73.9183 86.5075 70.1677 93.1484C66.4172 99.7549 61.2387 105.123 54.6323 109.252C48.0602 113.346 40.7484 115.394 32.6968 115.394ZM35.0194 97.6903C39.0452 97.6903 42.7441 96.6581 46.1161 94.5936C49.5226 92.5291 52.2064 89.7248 54.1677 86.1807C56.129 82.6022 57.1097 78.6968 57.1097 74.4645C57.1097 70.9549 56.4215 67.9441 55.0452 65.4323C53.6688 62.9204 51.7763 61.028 49.3677 59.7549C46.9591 58.4473 44.2064 57.7936 41.1097 57.7936C37.0839 57.7936 33.3849 58.843 30.0129 60.9419C26.6409 63.0409 23.957 65.8968 21.9613 69.5097C20 73.1226 19.0194 77.0796 19.0194 81.3807C19.0194 84.8215 19.7075 87.7807 21.0839 90.2581C22.4602 92.7011 24.3527 94.5592 26.7613 95.8323C29.1699 97.071 31.9226 97.6903 35.0194 97.6903Z" fill="black"/>
</svg>
